<svg id="Layer_3" data-name="Layer 3" xmlns="http://www.w3.org/2000/svg" xmlns:xlink="http://www.w3.org/1999/xlink" viewBox="0 0 578.68 565.6"><defs><style>.cls-1{fill:url(#linear-gradient);}</style><linearGradient id="linear-gradient" x1="411.43" y1="59.99" x2="285.97" y2="705.45" gradientUnits="userSpaceOnUse"><stop offset="0" stop-color="#c00"/><stop offset="1" stop-color="#63210b"/></linearGradient></defs><path class="cls-1" d="M628.5,419,482.09,603.16a25,25,0,0,1-19.53,9.44L227.28,613a25,25,0,0,1-19.56-9.38l-147-183.73a25,25,0,0,1-4.86-21.14l52-229.47a25,25,0,0,1,13.5-17L333.2,49.86a25,25,0,0,1,21.69,0L567,151.58a25,25,0,0,1,13.55,16.94l52.72,229.3A25,25,0,0,1,628.5,419Z" transform="translate(-55.26 -47.36)"/></svg>